# This file uses centimeters as units for non-parametric coordinates.

mtllib House.mtl
g default
v -256.000000 0.000000 128.000000
v 256.000000 0.000000 128.000000
v -256.000000 256.000000 128.000000
v 256.000000 256.000000 128.000000
v -256.000000 256.000000 -128.000000
v 256.000000 256.000000 -128.000000
v -256.000000 0.000000 -128.000000
v 256.000000 0.000000 -128.000000
v -256.000000 256.000000 0.000000
v -256.000000 0.000000 0.000000
v 256.000000 0.000000 0.000000
v 256.000000 256.000000 0.000000
v 256.000000 384.000000 0.000000
v -256.000000 384.000000 0.000000
v -256.000000 275.708984 147.709015
v 256.000000 275.708984 147.709015
v 256.000000 403.708984 19.709000
v -256.000000 403.708984 19.709000
v 256.000000 403.708984 -19.709007
v -256.000000 403.708984 -19.709007
v 256.000000 275.708984 -147.709000
v -256.000000 275.708984 -147.709000
v -256.000000 227.863129 156.136841
v 256.000000 227.863129 156.136841
v 256.000000 247.572098 175.845856
v -256.000000 247.572098 175.845856
v -256.000000 227.863129 -156.136841
v 256.000000 227.863129 -156.136841
v -256.000000 247.572128 -175.845840
v 256.000000 247.572128 -175.845840
vt 0.375000 0.062500
vt 0.625000 0.000000
vt 0.375000 0.250000
vt 0.625000 0.250000
vt 0.375000 0.437500
vt 0.625000 0.500000
vt 0.375000 0.750000
vt 0.625000 0.750000
vt 0.375000 1.000000
vt 0.625000 1.000000
vt 0.875000 0.000000
vt 0.875000 0.250000
vt 0.187500 0.250000
vt 0.250000 0.062500
vt 0.244092 0.250000
vt 0.375000 0.380908
vt 0.287728 0.062500
vt 0.375000 0.825457
vt 0.625000 0.825457
vt 0.799543 0.000000
vt 0.625000 0.424543
vt 0.799543 0.250000
vt 0.625000 0.424543
vt 0.375000 0.380908
vt 0.375000 0.250000
vt 0.625000 0.250000
vt 0.625000 0.424543
vt 0.375000 0.380908
vt 0.375000 0.380908
vt 0.625000 0.424543
vt 0.625000 0.500000
vt 0.375000 0.437500
vt 0.375000 0.250000
vt 0.625000 0.250000
vt 0.625000 0.250000
vt 0.375000 0.250000
vt 0.625000 0.500000
vt 0.375000 0.437500
vt 0.375000 0.437500
vt 0.625000 0.500000
vt 0.000000 0.000000
vt 0.999999 0.000000
vt 1.000000 0.999999
vt 0.000000 0.000000
vt 0.999999 0.000000
vt 1.000000 0.999999
vn 0.000000 0.000000 1.000000
vn 0.000000 0.000000 1.000000
vn 0.000000 0.000000 1.000000
vn 0.000000 0.000000 1.000000
vn 0.000000 0.707107 0.707107
vn 0.000000 0.707107 0.707107
vn 0.000000 0.707107 0.707107
vn 0.000000 0.707107 0.707107
vn 0.000000 0.000000 -1.000000
vn 0.000000 0.000000 -1.000000
vn 0.000000 0.000000 -1.000000
vn 0.000000 0.000000 -1.000000
vn 0.000000 -1.000000 0.000000
vn 0.000000 -1.000000 0.000000
vn 0.000000 -1.000000 0.000000
vn 0.000000 -1.000000 0.000000
vn 1.000000 0.000000 0.000000
vn 1.000000 0.000000 0.000000
vn 1.000000 0.000000 0.000000
vn 1.000000 0.000000 0.000000
vn -1.000000 0.000000 0.000000
vn -1.000000 0.000000 0.000000
vn -1.000000 0.000000 0.000000
vn -1.000000 0.000000 0.000000
vn -1.000000 0.000000 0.000000
vn -1.000000 0.000000 0.000000
vn 0.000000 -1.000000 0.000000
vn 0.000000 -1.000000 0.000000
vn 1.000000 0.000000 0.000000
vn 1.000000 0.000000 0.000000
vn 0.000000 0.707107 -0.707107
vn 0.000000 0.707107 -0.707107
vn 0.000000 0.707107 -0.707107
vn 0.000000 0.707107 -0.707107
vn 1.000000 0.000000 0.000000
vn -1.000000 0.000000 0.000000
vn 0.000000 -0.707108 0.707106
vn 0.000000 -0.707108 0.707106
vn 0.000000 -0.707108 0.707106
vn 0.000000 -0.707108 0.707106
vn 1.000000 0.000000 0.000000
vn 1.000000 0.000000 0.000000
vn -1.000000 0.000000 0.000000
vn -1.000000 0.000000 0.000000
vn 1.000000 0.000000 0.000000
vn 1.000000 0.000000 0.000000
vn 0.000000 -0.707107 -0.707107
vn 0.000000 -0.707107 -0.707107
vn 0.000000 -0.707107 -0.707107
vn 0.000000 -0.707107 -0.707107
vn -1.000000 0.000000 0.000000
vn -1.000000 0.000000 0.000000
vn 0.000000 -0.707106 -0.707107
vn 0.000000 -0.707106 -0.707107
vn 0.000000 -0.707106 -0.707107
vn 0.000000 -0.707106 -0.707107
vn 1.000000 0.000000 0.000000
vn 1.000000 0.000000 0.000000
vn 0.000000 0.707106 0.707107
vn 0.000000 0.707106 0.707107
vn -1.000000 0.000000 0.000000
vn -1.000000 0.000000 0.000000
vn 0.000000 -0.707106 0.707107
vn 0.000000 -0.707106 0.707107
vn 0.000000 -0.707106 0.707107
vn 0.000000 -0.707106 0.707107
vn -1.000000 0.000000 0.000000
vn -1.000000 0.000000 0.000000
vn 0.000000 0.707107 -0.707107
vn 0.000000 0.707107 -0.707107
vn 1.000000 0.000000 0.000000
vn 1.000000 0.000000 0.000000
vn 0.000000 1.000000 0.000000
vn 0.000000 1.000000 0.000000
vn 0.000000 1.000000 0.000000
vn 0.000000 1.000000 0.000000
vn 1.000000 0.000000 0.000000
vn 1.000000 0.000000 0.000000
vn 1.000000 0.000000 0.000000
vn -1.000000 0.000000 0.000000
vn -1.000000 0.000000 0.000000
vn -1.000000 0.000000 0.000000
s off
g House
usemtl initialShadingGroup
f 1/1/1 2/2/2 4/4/3 3/3/4
s 1
f 15/3/5 16/4/6 17/30/7 18/29/8
s off
f 5/5/9 6/6/10 8/8/11 7/7/12
s 2
f 10/18/13 11/19/14 2/10/15 1/9/16
s 3
f 2/2/17 11/20/18 12/22/19 4/4/20
s 4
f 1/1/21 3/3/22 9/15/23 10/17/24
f 10/17/24 9/15/23 5/13/25 7/14/26
s 2
f 7/7/27 8/8/28 11/19/14 10/18/13
s 3
f 12/22/19 11/20/18 8/11/29 6/12/30
s 5
f 20/29/31 19/30/32 21/31/33 22/32/34
s 3
f 4/4/20 12/21/19 13/23/35
s 4
f 9/16/23 3/3/22 14/24/36
s 3
f 12/21/19 6/6/30 13/23/35
s 4
f 5/5/25 9/16/23 14/24/36
s off
f 23/33/37 24/34/38 25/35/39 26/36/40
s 3
f 4/4/20 13/23/35 17/27/41 16/26/42
s 4
f 14/24/36 3/3/22 15/25/43 18/28/44
s 3
f 13/23/35 6/6/30 21/31/45 19/30/46
s off
f 28/37/47 27/38/48 29/39/49 30/40/50
s 4
f 5/5/25 14/24/36 20/29/51 22/32/52
s off
f 3/3/53 4/4/54 24/34/55 23/33/56
s 3
f 4/4/20 16/26/42 25/35/57 24/34/58
s 1
f 16/26/6 15/25/5 26/36/59 25/35/60
s 4
f 15/25/43 3/3/22 23/33/61 26/36/62
s off
f 6/6/63 5/5/64 27/38/65 28/37/66
s 4
f 5/5/25 22/32/52 29/39/67 27/38/68
s 5
f 22/32/34 21/31/33 30/40/69 29/39/70
s 3
f 21/31/45 6/6/30 28/37/71 30/40/72
s off
f 18/29/73 17/30/74 19/30/75 20/29/76
f 17/41/77 13/42/78 19/43/79
f 20/44/80 14/45/81 18/46/82
